# xmcd CD database file
#
# Track frame offsets:
#	150
#	19474
#	37650
#	50541
#	72224
#	82365
#	96855
#	112723
#	135069
#	153776
#
# Disc length: 2310 seconds
#
# Revision: 0
# Processed by: cddbd v1.4PL0 Copyright (c) Steve Scherf et al.
# Submitted via: CDex 1.50beta9
#
DISCID=7109040a
DTITLE=Alicia Dara - Toys
DYEAR=1999
DGENRE=Rhythmic Soul
TTITLE0=Virgin Kiss
TTITLE1=Firesign
TTITLE2=Skysong
TTITLE3=Caressive
TTITLE4=Pierce the Veil
TTITLE5=Stone's Throw
TTITLE6=Flying Dream
TTITLE7=Magnolia
TTITLE8=Naked Heart
TTITLE9=Business as Usual
EXTD=YEAR: 1999
EXTT0=
EXTT1=
EXTT2=
EXTT3=
EXTT4=
EXTT5=
EXTT6=
EXTT7=
EXTT8=
EXTT9=
PLAYORDER=
